<svg width="9" height="12" viewBox="0 0 9 12" fill="none" xmlns="http://www.w3.org/2000/svg">
<path d="M7.35718 10.9876L7.97544 10.5435C8.02628 10.5066 8.06662 10.4628 8.09416 10.4144C8.12169 10.3661 8.13586 10.3143 8.13586 10.262C8.13586 10.2096 8.12169 10.1578 8.09416 10.1095C8.06662 10.0611 8.02628 10.0173 7.97544 9.98043L2.55212 6.01532L7.97544 2.05021C8.02628 2.01335 8.06662 1.96949 8.09416 1.92117C8.12169 1.87285 8.13586 1.82103 8.13586 1.76868C8.13586 1.71634 8.12169 1.66451 8.09416 1.6162C8.06662 1.56788 8.02628 1.52402 7.97544 1.48716L7.35718 1.04307C7.30677 1.0059 7.24678 0.976406 7.1807 0.956276C7.11461 0.936145 7.04372 0.925781 6.97213 0.925781C6.90053 0.925781 6.82965 0.936145 6.76356 0.956276C6.69747 0.976406 6.63749 1.0059 6.58707 1.04307L0.155011 5.74569C0.0556412 5.81981 -1.81198e-05 5.91946 -1.81198e-05 6.02325C-1.81198e-05 6.12704 0.0556412 6.22669 0.155011 6.30081L6.58707 10.9876C6.63749 11.0247 6.69747 11.0542 6.76356 11.0744C6.82965 11.0945 6.90053 11.1049 6.97213 11.1049C7.04372 11.1049 7.11461 11.0945 7.1807 11.0744C7.24678 11.0542 7.30677 11.0247 7.35718 10.9876Z" fill="white"/>
</svg>
