<svg width="10" height="11" viewBox="0 0 10 11" fill="none" xmlns="http://www.w3.org/2000/svg">
<path d="M1.48368 10.8527L0.801903 10.4087C0.745849 10.3718 0.701357 10.3279 0.670995 10.2796C0.640632 10.2313 0.625 10.1795 0.625 10.1271C0.625 10.0748 0.640632 10.023 0.670995 9.97464C0.701357 9.92633 0.745849 9.88247 0.801903 9.84561L6.78244 5.88052L0.801903 1.91543C0.745849 1.87857 0.701357 1.83472 0.670995 1.7864C0.640632 1.73808 0.625 1.68626 0.625 1.63391C0.625 1.58157 0.640632 1.52974 0.670995 1.48143C0.701357 1.43311 0.745849 1.38925 0.801903 1.35239L1.48368 0.908302C1.53928 0.871138 1.60543 0.84164 1.67831 0.82151C1.75118 0.80138 1.82935 0.791016 1.9083 0.791016C1.98725 0.791016 2.06542 0.80138 2.1383 0.82151C2.21118 0.84164 2.27732 0.871138 2.33292 0.908302L9.42584 5.6109C9.53542 5.68502 9.5968 5.78467 9.5968 5.88845C9.5968 5.99224 9.53542 6.09189 9.42584 6.16601L2.33292 10.8527C2.27732 10.8899 2.21118 10.9194 2.1383 10.9395C2.06542 10.9597 1.98725 10.97 1.9083 10.97C1.82935 10.97 1.75118 10.9597 1.67831 10.9395C1.60543 10.9194 1.53928 10.8899 1.48368 10.8527Z" fill="white"/>
</svg>
